<svg width="136" height="64" viewBox="0 0 136 64" fill="none" xmlns="http://www.w3.org/2000/svg">
<path d="M12.6591 61.5485H7.90648V52.7401H6.14788V63.0375H12.6591V61.5485ZM15.8795 52.7401V63.0375H17.6381V52.7401H15.8795ZM28.7162 54.2294V52.7401H21.9992V63.0375H23.7579V58.6492H27.6708V57.2078H23.7579V54.2294H28.7162ZM39.2084 54.2294V52.7401H32.0637V63.0375H39.2243V61.5485H33.8223V58.5701H38.068V57.1443H33.8223V54.2294H39.2084ZM53.7033 63.2277C55.858 63.2277 57.4737 62.1029 57.4737 60.2494C57.4737 57.9522 55.3826 57.4612 53.6398 56.8591C52.6576 56.5107 51.818 56.1938 51.818 55.3225C51.818 54.5463 52.5786 54.0233 53.6557 54.0233C54.7805 54.0233 55.6201 54.5937 56.1746 55.2434H56.3013L57.2362 54.2612V54.1186C56.5232 53.2155 55.24 52.5502 53.624 52.5502C51.4855 52.5502 50.0279 53.7541 50.0279 55.4333C50.0279 57.2392 51.5964 57.9204 52.8161 58.3482C54.3369 58.9026 55.6678 59.0452 55.6678 60.2811C55.6678 61.1049 54.8913 61.7066 53.5925 61.7066C52.5468 61.7066 51.3429 61.089 50.5983 60.1385H50.4557L49.5052 61.1207V61.2633C50.4239 62.4989 52.0082 63.2277 53.7033 63.2277ZM65.843 63.2277C67.6651 63.2277 69.17 62.4196 70.1364 61.1998V61.0572L69.0274 60.17H68.9007C68.2037 61.0731 67.1104 61.6434 65.8747 61.6434C63.7995 61.6434 62.1838 60.075 62.1838 57.8889C62.1838 55.7026 63.7995 54.1345 65.8747 54.1345C67.1104 54.1345 68.2037 54.7045 68.9007 55.6076H69.0274L70.1364 54.7204V54.5778C69.1541 53.3422 67.6334 52.5502 65.8589 52.5502C62.8014 52.5502 60.4093 54.8315 60.4093 57.8889C60.4093 60.9464 62.8014 63.2277 65.843 63.2277ZM73.5629 52.7401V63.0375H75.3215V52.7401H73.5629ZM86.8273 54.2294V52.7401H79.6826V63.0375H86.8432V61.5485H81.4412V58.5701H85.6869V57.1443H81.4412V54.2294H86.8273ZM97.5414 52.7401V59.9642L91.5371 52.7401H90.5549V63.0375H92.2817V55.9087L98.2858 63.1483H99.268V52.7401H97.5414ZM108.398 63.2277C110.22 63.2277 111.725 62.4196 112.691 61.1998V61.0572L111.582 60.17H111.456C110.758 61.0731 109.665 61.6434 108.43 61.6434C106.354 61.6434 104.739 60.075 104.739 57.8889C104.739 55.7026 106.354 54.1345 108.43 54.1345C109.665 54.1345 110.758 54.7045 111.456 55.6076H111.582L112.691 54.7204V54.5778C111.709 53.3422 110.188 52.5502 108.414 52.5502C105.356 52.5502 102.964 54.8315 102.964 57.8889C102.964 60.9464 105.356 63.2277 108.398 63.2277ZM123.262 54.2294V52.7401H116.118V63.0375H123.278V61.5485H117.876V58.5701H122.122V57.1443H117.876V54.2294H123.262ZM130.285 63.2277C132.44 63.2277 134.056 62.1029 134.056 60.2494C134.056 57.9522 131.964 57.4612 130.222 56.8591C129.24 56.5107 128.4 56.1938 128.4 55.3225C128.4 54.5463 129.16 54.0233 130.238 54.0233C131.362 54.0233 132.202 54.5937 132.756 55.2434H132.883L133.818 54.2612V54.1186C133.105 53.2155 131.822 52.5502 130.206 52.5502C128.067 52.5502 126.61 53.7541 126.61 55.4333C126.61 57.2392 128.178 57.9204 129.398 58.3482C130.919 58.9026 132.25 59.0452 132.25 60.2811C132.25 61.1049 131.473 61.7066 130.174 61.7066C129.129 61.7066 127.925 61.089 127.18 60.1385H127.038L126.087 61.1207V61.2633C127.006 62.4989 128.59 63.2277 130.285 63.2277Z" fill="#1A3A7B"/>
<path fill-rule="evenodd" clip-rule="evenodd" d="M114.653 22.3068L121.759 22.2827C123.732 22.2827 125.334 21.7427 126.448 20.8206C127.579 19.884 128.208 18.5472 128.208 16.981V16.8926C128.208 15.1847 127.609 13.8788 126.541 12.9944C125.42 12.0663 123.776 11.591 121.759 11.591L114.653 11.6148V11.6049H108.77V6.23376L122.2 6.21002C125.838 6.21002 128.815 7.24768 130.89 9.07318C132.99 10.9206 134.164 13.5693 134.164 16.7602V16.8487C134.164 20.2312 132.863 22.8439 130.746 24.651C129.753 25.4989 128.58 26.1676 127.279 26.6543L135.658 37.5977H128.699L121.12 27.6212L114.653 27.6436V22.3068ZM12.148 22.3068H18.2283C20.2015 22.3068 21.8039 21.7665 22.9174 20.8447C24.049 19.9078 24.6783 18.571 24.6783 17.0049V16.9167C24.6783 15.2085 24.0787 13.9026 23.0107 13.0182C21.8895 12.0904 20.246 11.6148 18.2283 11.6148H12.148V11.6049H6.26468V6.23376H18.67C22.3082 6.23376 25.2846 7.27179 27.3598 9.09698C29.46 10.9447 30.6333 13.5931 30.6333 16.7843V16.8725C30.6333 20.2551 29.333 22.868 27.2158 24.6748C24.915 26.639 21.6517 27.6436 18.0517 27.6436H12.148V22.3068ZM11.9139 37.579H6.26468V27.6586H12.1316V37.579H11.9139ZM62.4389 24.2876V32.3304H71.2291C73.0631 32.3304 74.5258 31.9698 75.5154 31.266C76.4568 30.597 76.9727 29.606 76.9727 28.3091V28.2207C76.9727 26.9718 76.4678 25.9822 75.4428 25.3132C74.4243 24.6482 72.8928 24.2876 70.8317 24.2876H62.4389ZM56.6604 11.6272V6.23376H70.7435C72.5223 6.23376 74.1159 6.4778 75.491 6.9436C76.8919 7.4181 78.066 8.12332 78.9782 9.03522C79.682 9.74022 80.2169 10.5257 80.5758 11.4036C80.9349 12.2809 81.1172 13.2467 81.1172 14.3114V14.3998C81.1172 16.3053 80.5707 17.7716 79.7279 18.9163C78.9921 19.916 78.0317 20.6661 77.0149 21.2466C78.6573 21.8569 80.0556 22.6617 81.0716 23.7865C82.189 25.0241 82.8395 26.639 82.8395 28.7947V28.8829C82.8395 31.6628 81.7142 33.8126 79.7313 35.2821C77.6901 36.7955 74.7421 37.579 71.1849 37.579H56.6604V24.2355H62.4944V19.2598H69.6394C71.3907 19.2598 72.8386 18.9109 73.8242 18.2014C74.7324 17.548 75.2503 16.5782 75.2503 15.2828V15.1946C75.2503 14.0418 74.7863 13.112 73.9064 12.4754C73.0223 11.8359 71.7172 11.6272 70.0369 11.6272H56.6604ZM114.419 37.579H108.77V27.6586H114.637V37.579H114.419Z" fill="#1A3A7B"/>
<path fill-rule="evenodd" clip-rule="evenodd" d="M108.762 11.6034H102.881V17.4845H108.762V11.6034Z" fill="#D3A352"/>
<path fill-rule="evenodd" clip-rule="evenodd" d="M56.6035 11.6034H50.7221V17.4845H56.6035V11.6034Z" fill="#51BC4A"/>
<path fill-rule="evenodd" clip-rule="evenodd" d="M6.25698 11.6034H0.375977V17.4845H6.25698V11.6034Z" fill="#0794D4"/>
<path d="M93.5117 0.227722V43.5658H92.7489V0.227722H93.5117ZM41.3055 0.227722V43.5658H40.5427V0.227722H41.3055Z" fill="#485A94"/>
</svg>
